<mxfile host="app.diagrams.net" agent="Mozilla/5.0 (Windows NT 10.0; Win64; x64) AppleWebKit/537.36 (KHTML, like Gecko) Chrome/136.0.0.0 Safari/537.36" version="27.1.4">
  <diagram name="Página-1" id="O6xdlfu5NXMTk_jCGwXD">
    <mxGraphModel dx="572" dy="303" grid="1" gridSize="10" guides="1" tooltips="1" connect="1" arrows="1" fold="1" page="1" pageScale="1" pageWidth="827" pageHeight="1169" math="0" shadow="0">
      <root>
        <mxCell id="0" />
        <mxCell id="1" parent="0" />
        <mxCell id="eYA3JEJJOjrdMkBWPGMq-12" value="" style="rounded=1;whiteSpace=wrap;html=1;" parent="1" vertex="1">
          <mxGeometry x="120" y="10" width="180" height="180" as="geometry" />
        </mxCell>
        <mxCell id="eYA3JEJJOjrdMkBWPGMq-9" style="edgeStyle=orthogonalEdgeStyle;rounded=0;orthogonalLoop=1;jettySize=auto;html=1;entryX=0;entryY=0.5;entryDx=0;entryDy=0;" parent="1" source="eYA3JEJJOjrdMkBWPGMq-1" target="eYA3JEJJOjrdMkBWPGMq-6" edge="1">
          <mxGeometry relative="1" as="geometry" />
        </mxCell>
        <mxCell id="eYA3JEJJOjrdMkBWPGMq-10" style="edgeStyle=orthogonalEdgeStyle;rounded=0;orthogonalLoop=1;jettySize=auto;html=1;entryX=0;entryY=0.5;entryDx=0;entryDy=0;" parent="1" source="eYA3JEJJOjrdMkBWPGMq-1" target="eYA3JEJJOjrdMkBWPGMq-7" edge="1">
          <mxGeometry relative="1" as="geometry" />
        </mxCell>
        <mxCell id="eYA3JEJJOjrdMkBWPGMq-11" style="edgeStyle=orthogonalEdgeStyle;rounded=0;orthogonalLoop=1;jettySize=auto;html=1;entryX=0;entryY=0.5;entryDx=0;entryDy=0;" parent="1" source="eYA3JEJJOjrdMkBWPGMq-1" target="eYA3JEJJOjrdMkBWPGMq-8" edge="1">
          <mxGeometry relative="1" as="geometry" />
        </mxCell>
        <object label="usuário" id="eYA3JEJJOjrdMkBWPGMq-1">
          <mxCell style="shape=umlActor;verticalLabelPosition=bottom;verticalAlign=top;html=1;outlineConnect=0;align=center;" parent="1" vertex="1">
            <mxGeometry x="50" y="100" width="30" height="60" as="geometry" />
          </mxCell>
        </object>
        <mxCell id="eYA3JEJJOjrdMkBWPGMq-6" value="Cadastrar usuários" style="rounded=1;whiteSpace=wrap;html=1;" parent="1" vertex="1">
          <mxGeometry x="140" y="50" width="120" height="20" as="geometry" />
        </mxCell>
        <mxCell id="eYA3JEJJOjrdMkBWPGMq-7" value="cadastrar tarefas" style="rounded=1;whiteSpace=wrap;html=1;" parent="1" vertex="1">
          <mxGeometry x="140" y="90" width="120" height="20" as="geometry" />
        </mxCell>
        <mxCell id="eYA3JEJJOjrdMkBWPGMq-8" value="gerenciar tarefas" style="rounded=1;whiteSpace=wrap;html=1;" parent="1" vertex="1">
          <mxGeometry x="140" y="130" width="120" height="20" as="geometry" />
        </mxCell>
        <mxCell id="eYA3JEJJOjrdMkBWPGMq-13" value="Sistema" style="text;html=1;align=center;verticalAlign=middle;resizable=0;points=[];autosize=1;strokeColor=none;fillColor=none;" parent="1" vertex="1">
          <mxGeometry x="165" y="10" width="70" height="30" as="geometry" />
        </mxCell>
      </root>
    </mxGraphModel>
  </diagram>
</mxfile>
